<?xml version="1.0" encoding="utf-8"?>
<!-- Designed by Vexels.com - 2016 All Rights Reserved - https://vexels.com/terms-and-conditions/  -->

<svg version="1.1" id="Capa_1" xmlns="http://www.w3.org/2000/svg" xmlns:xlink="http://www.w3.org/1999/xlink" x="0px" y="0px"
	 width="1200px" height="1200px" viewBox="0 0 1200 1200" enable-background="new 0 0 1200 1200" xml:space="preserve">
<path d="M61.471,1050.73c0.516,0.224,1.063,0.381,1.602,0.561c0.25,0.078,0.484,0.179,0.742,0.235
	c0.719,0.213,1.477,0.348,2.234,0.46c0.063,0.011,0.133,0.033,0.195,0.044c0.844,0.124,1.672,0.18,2.523,0.18
	c0.016,0,0.039,0,0.039,0H1131.15c0.023,0,0.055,0,0.078,0c0.852,0,1.695-0.056,2.531-0.18c0.125-0.022,0.25-0.056,0.383-0.078
	c0.688-0.112,1.367-0.235,2.055-0.415c0.242-0.078,0.484-0.179,0.742-0.246c0.539-0.18,1.07-0.337,1.602-0.55
	c0.156-0.078,0.305-0.168,0.445-0.247c2.523-1.144,4.789-2.848,6.641-5.023c0.211-0.28,0.461-0.516,0.664-0.796
	c0.219-0.269,0.375-0.605,0.594-0.897c0.258-0.381,0.539-0.751,0.758-1.188c0.016-0.022,0.023-0.067,0.047-0.101
	c0.023-0.056,0.047-0.078,0.055-0.112c0.055-0.09,0.07-0.19,0.133-0.28c0.477-0.896,0.844-1.816,1.156-2.78
	c0.094-0.27,0.18-0.527,0.273-0.808c0.281-1.032,0.516-2.063,0.625-3.117c0.016-0.19,0-0.359,0.023-0.55
	c0.07-0.908,0.055-1.816,0-2.736c-0.023-0.28-0.031-0.561-0.07-0.852c-0.117-1.043-0.313-2.108-0.602-3.117
	c-0.023-0.057-0.047-0.102-0.07-0.169c-0.281-0.964-0.68-1.884-1.133-2.803c-0.117-0.27-0.258-0.516-0.398-0.785
	c-0.141-0.246-0.25-0.516-0.406-0.763l-531.25-866.878c-3.406-5.551-9.484-8.948-16.031-8.948c-6.523,0-12.594,3.397-16.016,8.948
	L52.736,1023.616c-0.148,0.235-0.25,0.482-0.367,0.729c-0.156,0.246-0.297,0.516-0.43,0.796c-0.438,0.863-0.805,1.761-1.102,2.68
	c-0.031,0.102-0.078,0.202-0.109,0.28c-0.289,1.032-0.492,2.063-0.617,3.117c-0.031,0.28-0.055,0.561-0.063,0.842
	c-0.063,0.896-0.07,1.771-0.016,2.657c0.016,0.224,0.016,0.426,0.023,0.639c0.109,1.055,0.328,2.086,0.602,3.106
	c0.078,0.28,0.18,0.55,0.273,0.841c0.289,0.908,0.672,1.794,1.109,2.669c0.055,0.112,0.086,0.235,0.156,0.358
	c0.031,0.057,0.078,0.102,0.102,0.157c0.023,0.045,0.031,0.09,0.055,0.112c0.195,0.358,0.438,0.673,0.648,1.009
	c0.242,0.359,0.438,0.729,0.695,1.055c0.203,0.269,0.422,0.504,0.641,0.762c0.336,0.404,0.648,0.819,1.008,1.189
	c0.039,0.021,0.063,0.044,0.094,0.078c1.695,1.693,3.68,3.039,5.82,3.97C61.346,1050.663,61.4,1050.708,61.471,1050.73z
	 M336.182,632.995L444.4,809.58L121.205,983.81L336.182,632.995z M1078.572,983.395L758.76,809.636l106.664-174.028
	L1078.572,983.395z M570.057,1014.612H143.213L464.057,841.66L570.057,1014.612z M739.104,841.717l318.211,172.907H633.15
	L739.104,841.717z M724.26,409.068v175.385h-51.086V321.896l51.422,83.908C724.408,406.87,724.26,407.936,724.26,409.068z
	 M761.846,466.592l72.234,117.872h-72.234V466.592z M829.65,622.051L601.596,994.182L373.541,622.051H829.65z M470.166,584.453
	V414.372l59.867-97.7v267.781H470.166L470.166,584.453z M432.596,584.453h-66.68l66.68-108.779V584.453z M599.994,202.499
	l35.711,58.264c-0.016,0.314-0.094,0.65-0.094,0.986v322.704h-68V256.378c0-0.303-0.078-0.583-0.094-0.886L599.994,202.499z"/>
</svg>
